<svg width="777" height="348" viewBox="0 0 777 348" fill="none" xmlns="http://www.w3.org/2000/svg">
<g opacity="0.18">
<path d="M-24.5379 112.404C-51.8891 83.216 -65.8615 53.9516 -72.6198 28.1732C-77.7185 8.72484 -111.107 -1.13177 -125.887 14.6927L-214.484 109.549C-222.778 118.429 -221.417 131.255 -211.445 138.197L495.228 630.108C505.201 637.05 520.008 635.479 528.302 626.599L758.236 380.419C767.605 370.388 764.496 355.724 751.188 350.746C654.466 314.566 492.259 294.067 310.369 286.26C180.314 280.677 68.3665 211.546 -24.5379 112.404Z" fill="white"/>
<path d="M-59.6478 150.141C-91.8614 106.622 -103.238 74.5513 -105.727 49.7151C-107.729 29.7467 -130.977 20.3447 -145.771 36.1845L-240.471 137.578C-248.764 146.458 -247.404 159.284 -237.431 166.226L469.026 658.004C478.998 664.946 493.806 663.375 502.1 654.495L692.287 450.863C700.581 441.983 699.269 429.112 688.696 422.864C600.723 370.878 453.149 339.254 268.014 331.606C137.808 326.227 15.2185 251.281 -59.6478 150.141Z" fill="#D7D7D7"/>
<path d="M-94.6302 181.039C-96.7031 178.752 -98.699 176.447 -100.619 174.126C-116.584 154.837 -232.411 129.195 -250.15 148.189L-279.81 179.947C-288.104 188.827 -286.743 201.653 -276.771 208.595L426.176 697.953C436.31 705.007 451.394 703.256 459.588 694.072L600.029 536.674C607.962 527.783 606.498 515.205 596.169 508.967C505.251 454.048 334.805 400.17 225.358 374.459C80.9718 340.539 -6.22362 278.595 -94.6302 181.039Z" fill="#FFAA33"/>
</g>
</svg>
