<svg width="573" height="636" viewBox="0 0 573 636" fill="none" xmlns="http://www.w3.org/2000/svg">
<g opacity="0.18">
<path d="M27.0221 85.7632C16.1479 1.31636 54.7023 -51.4546 76.5284 -75.7308L-160.494 -18.9014L159.048 856.638L568.194 758.54C514.994 668.825 377.011 548.657 208.866 428.466C98.7863 349.78 45.0224 225.55 27.0221 85.7632Z" fill="white"/>
<path d="M-26.976 98.3929C-27.8974 -26.5431 24.5687 -44.553 46.529 -68.8593L-200.566 -9.66699L119.305 865.986L462.434 783.789C425.877 683.714 312.689 563.906 143.919 443.808C33.4293 365.183 -26.0072 229.753 -26.976 98.3929Z" fill="#D7D7D7"/>
<path d="M-76.139 104.91C-84.8246 26.863 -46.3651 -34.2377 1.70752 -58.4866L-261.182 4.41162L57.9038 876.818L328.12 806.007C291.653 706.303 165.831 547.396 80.6904 456.627C-24.1782 344.827 -61.0089 240.865 -76.139 104.91Z" fill="#FF9F9F"/>
</g>
</svg>
