<svg width="73" height="65" viewBox="0 0 73 65" fill="none" xmlns="http://www.w3.org/2000/svg">
<path d="M16.6815 32.2303C16.6815 22.7607 23.358 14.8225 32.2508 12.8721C25.2945 13.7578 18.0206 16.7736 10.9727 21.7289C4.61971 26.1959 0.696672 30.6238 0.53285 30.8101C-0.177617 31.6178 -0.177617 32.8274 0.53285 33.6352C0.696672 33.8215 4.61971 38.2494 10.9728 42.7162C17.9633 47.6313 25.1761 50.6383 32.0807 51.5514C23.2729 49.5378 16.6815 41.6395 16.6815 32.2303Z" fill="url(#paint0_linear_1_1142)"/>
<path d="M20.959 32.2303C20.959 40.7997 27.9306 47.7714 36.5 47.7714C45.0694 47.7714 52.041 40.7997 52.041 32.2303C52.041 23.661 45.0694 16.6893 36.5 16.6893C27.9306 16.6893 20.959 23.661 20.959 32.2303ZM39.3516 25.8066H45.0547C46.2358 25.8066 47.1934 26.7642 47.1934 27.9453V33.6484C47.1934 34.8295 46.2358 35.7871 45.0547 35.7871C43.8736 35.7871 42.916 34.8295 42.916 33.6484V33.1085L38.0122 38.0123C37.177 38.8474 35.823 38.8475 34.9877 38.0123L32.219 35.2437L29.4904 37.9723C28.6554 38.8073 27.3011 38.8076 26.4659 37.9723C25.6307 37.1372 25.6307 35.7831 26.4659 34.9477L30.7066 30.7069C31.5416 29.8717 32.8968 29.8722 33.7311 30.7069L36.5 33.4755L39.8915 30.084H39.3516C38.1704 30.084 37.2129 29.1264 37.2129 27.9453C37.2129 26.7642 38.1704 25.8066 39.3516 25.8066Z" fill="url(#paint1_linear_1_1142)"/>
<path d="M72.4672 30.8102C72.3034 30.6239 68.3804 26.196 62.0272 21.7291C54.9794 16.7737 47.7055 13.758 40.7491 12.8723C49.6419 14.8226 56.3184 22.7608 56.3184 32.2304C56.3184 41.6396 49.727 49.5378 40.9194 51.5515C47.824 50.6385 55.0369 47.6314 62.0272 42.7163C68.3804 38.2495 72.3033 33.8215 72.4672 33.6353C73.1777 32.8275 73.1777 31.6179 72.4672 30.8102Z" fill="url(#paint2_linear_1_1142)"/>
<path d="M53.3222 52.806C52.7315 51.783 51.4236 51.4324 50.4008 52.0232C49.3778 52.6138 49.0273 53.9217 49.618 54.9447L51.828 58.7725C52.4204 59.7986 53.7296 60.1442 54.7494 59.5552C55.7724 58.9647 56.1229 57.6568 55.5322 56.6338L53.3222 52.806Z" fill="url(#paint3_linear_1_1142)"/>
<path d="M36.5 8.55469C37.6811 8.55469 38.6387 7.59713 38.6387 6.41602V2.13867C38.6387 0.957555 37.6811 0 36.5 0C35.3189 0 34.3613 0.957555 34.3613 2.13867V6.41602C34.3613 7.59713 35.3189 8.55469 36.5 8.55469Z" fill="url(#paint4_linear_1_1142)"/>
<path d="M50.4721 12.2987C51.4905 12.8868 52.8004 12.5435 53.3935 11.5159L55.5322 7.81176C56.1229 6.78891 55.7724 5.48075 54.7494 4.89034C53.7266 4.29949 52.4184 4.64995 51.828 5.67309L49.6893 9.37727C49.0986 10.4001 49.4491 11.7081 50.4721 12.2987Z" fill="url(#paint5_linear_1_1142)"/>
<path d="M36.5 55.748C35.3189 55.748 34.3613 56.7056 34.3613 57.8867V62.3066C34.3613 63.4878 35.3189 64.4453 36.5 64.4453C37.6811 64.4453 38.6387 63.4878 38.6387 62.3066V57.8867C38.6387 56.7056 37.6811 55.748 36.5 55.748Z" fill="url(#paint6_linear_1_1142)"/>
<path d="M19.6053 11.5161C20.1977 12.5423 21.5069 12.8879 22.5268 12.2989C23.5498 11.7083 23.9002 10.4003 23.3095 9.37745L21.1708 5.67327C20.5801 4.65013 19.2723 4.29982 18.2494 4.89052C17.2264 5.48108 16.876 6.78909 17.4667 7.81194L19.6053 11.5161Z" fill="url(#paint7_linear_1_1142)"/>
<path d="M22.598 52.0233C21.5752 51.4323 20.267 51.7832 19.6766 52.806L17.4667 56.6338C16.876 57.6568 17.2264 58.9648 18.2494 59.5552C19.2683 60.1437 20.5779 59.7995 21.1708 58.7725L23.3808 54.9447C23.9715 53.9218 23.621 52.6138 22.598 52.0233Z" fill="url(#paint8_linear_1_1142)"/>
<defs>
<linearGradient id="paint0_linear_1_1142" x1="16.1254" y1="12.8721" x2="16.1254" y2="51.5514" gradientUnits="userSpaceOnUse">
<stop stop-color="#0071BC"/>
<stop offset="1" stop-color="#17A1FA"/>
</linearGradient>
<linearGradient id="paint1_linear_1_1142" x1="36.5" y1="16.6893" x2="36.5" y2="47.7714" gradientUnits="userSpaceOnUse">
<stop stop-color="#0071BC"/>
<stop offset="1" stop-color="#17A1FA"/>
</linearGradient>
<linearGradient id="paint2_linear_1_1142" x1="56.8746" y1="12.8723" x2="56.8746" y2="51.5515" gradientUnits="userSpaceOnUse">
<stop stop-color="#0071BC"/>
<stop offset="1" stop-color="#17A1FA"/>
</linearGradient>
<linearGradient id="paint3_linear_1_1142" x1="52.5751" y1="51.7362" x2="52.5751" y2="59.8421" gradientUnits="userSpaceOnUse">
<stop stop-color="#0071BC"/>
<stop offset="1" stop-color="#17A1FA"/>
</linearGradient>
<linearGradient id="paint4_linear_1_1142" x1="36.5" y1="0" x2="36.5" y2="8.55469" gradientUnits="userSpaceOnUse">
<stop stop-color="#0071BC"/>
<stop offset="1" stop-color="#17A1FA"/>
</linearGradient>
<linearGradient id="paint5_linear_1_1142" x1="52.6107" y1="4.60327" x2="52.6107" y2="12.5855" gradientUnits="userSpaceOnUse">
<stop stop-color="#0071BC"/>
<stop offset="1" stop-color="#17A1FA"/>
</linearGradient>
<linearGradient id="paint6_linear_1_1142" x1="36.5" y1="55.748" x2="36.5" y2="64.4453" gradientUnits="userSpaceOnUse">
<stop stop-color="#0071BC"/>
<stop offset="1" stop-color="#17A1FA"/>
</linearGradient>
<linearGradient id="paint7_linear_1_1142" x1="20.3881" y1="4.60352" x2="20.3881" y2="12.5858" gradientUnits="userSpaceOnUse">
<stop stop-color="#0071BC"/>
<stop offset="1" stop-color="#17A1FA"/>
</linearGradient>
<linearGradient id="paint8_linear_1_1142" x1="20.4237" y1="51.7362" x2="20.4237" y2="59.8421" gradientUnits="userSpaceOnUse">
<stop stop-color="#0071BC"/>
<stop offset="1" stop-color="#17A1FA"/>
</linearGradient>
</defs>
</svg>
