<svg width="69" height="69" viewBox="0 0 69 69" fill="none" xmlns="http://www.w3.org/2000/svg">
<path fill-rule="evenodd" clip-rule="evenodd" d="M32.8309 18.1272C28.6388 18.5543 24.7703 20.579 22.0243 23.7834C19.2782 26.9877 17.8644 31.1269 18.0747 35.3463C18.2849 39.5657 20.1033 43.543 23.1542 46.457C26.2051 49.3709 30.2557 50.999 34.4694 51.005C36.6306 51.0163 38.7725 50.5966 40.7704 49.7703C42.7684 48.944 44.5825 47.7276 46.1072 46.1919C49.1786 43.1008 50.9069 38.9178 50.9155 34.5546C50.9155 34.0633 50.9154 33.4952 50.2646 33.4952H45.9541C45.3033 33.4952 45.3033 34.0633 45.3033 34.5546C45.2827 37.4443 44.1434 40.2132 42.1258 42.277C40.0934 44.3095 37.34 45.4509 34.4694 45.4509C31.5988 45.4509 28.8453 44.3095 26.8129 42.277C24.7897 40.2156 23.6449 37.4465 23.6202 34.5546C23.6262 31.6709 24.771 28.9069 26.8041 26.8671C28.8372 24.8273 31.5932 23.6776 34.4694 23.6695C34.9594 23.6695 35.526 23.6695 35.526 23.017V1.23158C35.5485 1.07885 35.5378 0.923046 35.4949 0.774788C35.4519 0.626531 35.3776 0.489296 35.2769 0.372427C35.1763 0.255559 35.0518 0.161799 34.9117 0.0975326C34.7717 0.0332657 34.6195 0 34.4655 0C34.3116 0 34.1594 0.0332657 34.0194 0.0975326C33.8793 0.161799 33.7548 0.255559 33.6542 0.372427C33.5535 0.489296 33.4792 0.626531 33.4362 0.774788C33.3933 0.923046 33.3826 1.07885 33.4051 1.23158V17.4747C33.4099 17.635 33.3542 17.7912 33.2492 17.9122C33.1442 18.0331 32.9976 18.1099 32.8386 18.1272H32.8309ZM63.6252 14.3735L54.1771 23.8077C54.0805 23.9139 53.9619 23.9978 53.8297 24.0535C53.6975 24.1092 53.5548 24.1353 53.4114 24.1301H47.248C46.908 24.1439 46.5867 24.2898 46.3522 24.5369L35.1125 35.7444C35.0165 35.8412 34.9024 35.918 34.7768 35.9706C34.6511 36.0232 34.5164 36.0504 34.3802 36.0508C34.2441 36.0511 34.1092 36.0246 33.9832 35.9727C33.8573 35.9208 33.7428 35.8445 33.6463 35.7482C33.5498 35.652 33.4731 35.5376 33.4207 35.4116C33.3683 35.2856 33.3411 35.1505 33.3407 35.014C33.3404 34.8775 33.3668 34.7423 33.4186 34.616C33.4704 34.4898 33.5465 34.375 33.6425 34.2782L44.8056 23.1015C44.9471 22.9836 45.0565 22.8316 45.1235 22.6597C45.1904 22.4879 45.2128 22.3018 45.1884 22.1189V15.9778C45.1923 15.8405 45.2234 15.7052 45.28 15.58C45.3365 15.4549 45.4173 15.3422 45.5176 15.2486L55.0729 5.72224C55.2224 5.5771 55.4113 5.47945 55.6159 5.44153C55.8206 5.40361 56.0318 5.42712 56.2232 5.50911C56.4145 5.5911 56.5775 5.72791 56.6916 5.90239C56.8056 6.07687 56.8658 6.28124 56.8645 6.48988V11.9554C56.8635 12.0414 56.8796 12.1267 56.912 12.2063C56.9443 12.286 56.9922 12.3583 57.0528 12.4191C57.1135 12.4799 57.1856 12.5279 57.2651 12.5603C57.3445 12.5928 57.4296 12.6089 57.5153 12.6079H62.8748C63.0862 12.5988 63.2954 12.6545 63.4744 12.7675C63.6534 12.8806 63.7939 13.0456 63.877 13.2407C63.9601 13.4357 63.982 13.6516 63.9398 13.8594C63.8975 14.0673 63.7931 14.2573 63.6405 14.4042L63.6252 14.3735ZM53.6718 33.4645H67.9434C68.2236 33.4645 68.4924 33.5761 68.6905 33.7748C68.8887 33.9735 69 34.2429 69 34.5239C69 34.8048 68.8887 35.0743 68.6905 35.2729C68.4924 35.4716 68.2236 35.5832 67.9434 35.5832H62.4078C62.3203 35.5749 62.232 35.5861 62.1493 35.6159C62.0665 35.6458 61.9914 35.6936 61.9293 35.7559C61.8671 35.8182 61.8194 35.8936 61.7896 35.9765C61.7599 36.0594 61.7487 36.1479 61.757 36.2357C61.3595 41.8406 59.3251 47.2041 55.9075 51.6575C52.1094 56.5036 46.7929 59.9246 40.8166 61.368C40.3266 61.4525 39.7523 61.368 39.7523 60.7155V52.8012C39.7711 52.6685 39.8272 52.5439 39.9139 52.442C40.0007 52.34 40.1146 52.265 40.2423 52.2255C43.0009 51.2612 45.5077 49.687 47.5772 47.6197C51.0487 44.1599 53.0116 39.4621 53.0363 34.5546C53.0363 34.0633 53.0363 33.4952 53.6871 33.4952L53.6718 33.4645ZM35.5183 53.7454V68.0234C35.4957 68.2898 35.3742 68.5379 35.1778 68.7188C34.9815 68.8996 34.7245 69 34.4579 69C34.1912 69 33.9343 68.8996 33.7379 68.7188C33.5416 68.5379 33.4201 68.2898 33.3975 68.0234V62.65C33.4041 62.4892 33.3491 62.332 33.2437 62.2107C33.1383 62.0893 32.9906 62.013 32.8309 61.9975C26.9908 61.6054 21.431 59.3421 16.9714 55.5412C12.5118 51.7404 9.38854 46.6033 8.06225 40.8876C7.90147 40.3963 8.06225 39.9127 8.62883 39.9127H16.2087C16.357 39.9017 16.5043 39.9444 16.6238 40.0332C16.7432 40.122 16.8269 40.2508 16.8595 40.3963C18.0918 44.1019 20.4555 47.3249 23.6159 49.6091C26.7763 51.8933 30.5734 53.1228 34.4694 53.1236C34.9594 53.1236 35.526 53.1236 35.526 53.7761L35.5183 53.7454ZM15.2287 35.5525H1.05659C0.776366 35.5525 0.507618 35.4409 0.309468 35.2422C0.111319 35.0436 0 34.7741 0 34.4932C0 34.2122 0.111319 33.9428 0.309468 33.7441C0.507618 33.5454 0.776366 33.4338 1.05659 33.4338H6.59221C6.76836 33.4504 6.94436 33.4006 7.0859 33.2942C7.22744 33.1877 7.32439 33.0323 7.35786 32.8581C7.64878 27.0077 9.7864 21.4012 13.4622 16.8481C17.1379 12.2949 22.1617 9.03053 27.8083 7.52618C27.9053 7.50853 28.005 7.51196 28.1006 7.53625C28.1962 7.56054 28.2854 7.60511 28.3624 7.66697C28.4393 7.72882 28.5021 7.80651 28.5465 7.89479C28.591 7.98307 28.6159 8.07987 28.6198 8.17867V16.4077C28.6323 16.5459 28.5994 16.6845 28.5262 16.8022C28.4529 16.92 28.3433 17.0106 28.2141 17.0602C25.6467 17.9895 23.3112 19.4667 21.3692 21.3896C19.6328 23.1122 18.2537 25.1623 17.3115 27.4218C16.3693 29.6814 15.8826 32.1055 15.8795 34.5546C15.8795 35.0459 15.8795 35.6139 15.2287 35.6139V35.5525ZM42.524 33.4338H41.4674C41.3833 33.4312 41.3003 33.453 41.2283 33.4966C41.1563 33.5402 41.0984 33.6037 41.0616 33.6795L37.0649 37.6788C33.5659 41.1332 28.3442 35.8288 31.7743 32.4052L35.2733 28.8127C35.3472 28.7736 35.409 28.7151 35.4522 28.6434C35.4954 28.5717 35.5182 28.4896 35.5183 28.4058V26.4484C35.5075 26.2789 35.4354 26.1191 35.3157 25.999C35.1959 25.8789 35.0366 25.8067 34.8675 25.7959C33.1053 25.7317 31.3648 26.2027 29.8742 27.1473C28.3835 28.0918 27.2123 29.4658 26.5139 31.0893C25.8155 32.7127 25.6226 34.5098 25.9604 36.245C26.2982 37.9802 27.151 39.5727 28.407 40.8136C29.663 42.0546 31.2637 42.8862 32.9992 43.1994C34.7347 43.5126 36.5241 43.2929 38.1329 42.569C39.7417 41.8451 41.0949 40.6508 42.015 39.1426C42.9352 37.6344 43.3795 35.8827 43.2896 34.117C43.2619 33.934 43.1692 33.7671 43.0285 33.6472C42.8878 33.5273 42.7086 33.4624 42.524 33.4645V33.4338Z" fill="url(#paint0_linear_1_1154)"/>
<defs>
<linearGradient id="paint0_linear_1_1154" x1="34.5" y1="0" x2="34.5" y2="69" gradientUnits="userSpaceOnUse">
<stop stop-color="#0071BC"/>
<stop offset="1" stop-color="#17A1FA"/>
</linearGradient>
</defs>
</svg>
