<svg width="918" height="298" viewBox="0 0 918 298" fill="none" xmlns="http://www.w3.org/2000/svg">
<g>
<path d="M63.2627 67.537C30.0036 32.2152 12.6218 -4.42986 3.6937 -36.5447C-2.15805 -57.5938 -34.3398 -66.6418 -46.6727 -48.6435L-135.959 81.658C-142.827 91.681 -140.284 105.396 -130.28 112.291L652.774 651.975C662.778 658.87 676.456 656.334 683.324 646.312L902.973 325.763C910.76 314.398 906.351 298.751 893.37 294.164C789.803 257.563 618.275 245.523 427.18 250.622C291.586 254.239 168.922 179.749 63.2627 67.537Z" fill="white"/>
<path d="M30.286 115.859C-10.1646 61.9657 -24.176 22.2256 -27.8392 -8.55349C-30.4237 -30.2687 -52.9806 -39.1669 -65.3249 -21.1515L-160.358 117.541C-167.225 127.564 -164.683 141.279 -154.679 148.174L628.139 687.715C638.143 694.61 651.821 692.075 658.689 682.052L840.744 416.357C847.611 406.334 845.096 392.561 834.624 386.403C738.608 329.94 581.633 303.154 387.382 308.7C251.649 312.575 117.395 231.917 30.286 115.859Z" fill="#C8C2C2"/>
<path d="M-3.19053 155.919C-9.10888 149.425 -14.5367 142.759 -19.4904 135.969C-34.876 114.878 -142.398 91.6592 -157.141 113.177L-197.299 171.786C-204.167 181.81 -201.624 195.525 -191.62 202.42L587.383 739.358C597.544 746.362 611.455 743.623 618.203 733.289L752.757 527.257C759.297 517.242 756.679 503.786 746.426 497.632C647.33 438.162 463.801 386.236 347.041 363.793C193.942 334.365 97.6508 266.576 -3.19053 155.919Z" fill="#BC8000"/>
</g>
</svg>
