<svg width="119" height="87" viewBox="0 0 119 87" fill="none" xmlns="http://www.w3.org/2000/svg">
<path d="M104.176 86.3636C107.415 86.0938 109.574 83.125 109.034 80.1562C108.764 78.5369 107.955 77.1875 106.605 76.108C93.111 67.2017 92.3014 56.6761 94.7303 48.5795H113.352C116.321 48.5795 118.75 46.1506 118.75 43.1818V5.39773C118.75 2.42898 116.321 0 113.352 0H70.1707C67.2019 0 64.7729 2.42898 64.7729 5.39773V53.4375C64.7729 60.1847 66.932 66.9318 70.9803 72.3296C75.8383 78.8068 85.5542 86.0938 104.176 86.3636Z" fill="#0071BC" fill-opacity="0.11"/>
<path d="M39.4034 86.3636C42.3721 86.3636 44.8011 83.9346 44.8011 80.9659C44.8011 79.0767 43.9915 77.4574 42.3721 76.6477C42.1023 76.3778 42.1023 76.3778 41.8324 76.1079C28.3381 67.2017 27.5284 56.6761 29.9574 48.5796H48.5795C51.5483 48.5796 53.9773 46.1506 53.9773 43.1818V5.39773C53.9773 2.42898 51.5483 0 48.5795 0H5.39773C2.42898 0 0 2.42898 0 5.39773V53.4375C0 60.1847 2.15909 66.9318 6.20738 72.3295C11.0653 78.8068 20.7812 86.0937 39.4034 86.3636Z" fill="#0071BC" fill-opacity="0.11"/>
</svg>
