<svg width="46" height="46" viewBox="0 0 46 46" fill="none" xmlns="http://www.w3.org/2000/svg">
<path d="M14.1716 5.97351L21.1026 1.80889L20.4085 0.653677C20.0254 0.0161459 19.1971 -0.190764 18.5592 0.192599L13.9385 2.96895C13.3009 3.35204 13.0941 4.18031 13.4774 4.8182L14.1716 5.97351Z" fill="url(#paint0_linear_1_895)"/>
<path d="M42.0539 31.4519C41.6676 30.8158 40.8383 30.6127 40.2022 30.999L32.6814 35.5676C33.039 36.4256 33.2717 37.3465 33.3588 38.3096L41.6011 33.3026C42.238 32.9163 42.4402 32.088 42.0539 31.4519Z" fill="url(#paint1_linear_1_895)"/>
<path d="M34.7463 43.3047H30.7033V39.1719C30.7033 35.4564 27.6805 32.4336 23.965 32.4336C20.2495 32.4336 17.2267 35.4564 17.2267 39.1719V43.3047H13.1838C12.4395 43.3047 11.8361 43.9081 11.8361 44.6523C11.8361 45.3966 12.4395 46 13.1838 46H34.7463C35.4905 46 36.0939 45.3966 36.0939 44.6523C36.0939 43.9081 35.4905 43.3047 34.7463 43.3047ZM23.965 40.5195C23.2207 40.5195 22.6174 39.9161 22.6174 39.1719C22.6174 38.4276 23.2207 37.8242 23.965 37.8242C24.7093 37.8242 25.3127 38.4276 25.3127 39.1719C25.3127 39.9161 24.7093 40.5195 23.965 40.5195Z" fill="url(#paint2_linear_1_895)"/>
<path d="M13.9436 10.827L15.3653 13.193L18.2398 11.4549C21.6471 9.39468 26.0399 10.5428 28.0617 13.8476C30.1426 17.2494 29.0519 21.6871 25.6304 23.7361L22.7402 25.467L23.661 26.9994C24.0459 27.6399 24.8778 27.8435 25.5142 27.458C25.5567 27.4325 26.0078 27.1615 26.6889 26.7521L28.7565 30.1931C29.1404 30.8322 29.9697 31.0366 30.6058 30.6542L35.2264 27.8779C35.8644 27.4945 36.0708 26.6667 35.6875 26.0286L33.6199 22.5876C34.3097 22.1732 34.7516 21.9077 34.7516 21.9077C35.3896 21.5243 35.5959 20.6964 35.2127 20.0584C35.1805 20.0048 25.4865 3.86857 25.4511 3.81709C25.0477 3.22987 24.2569 3.05809 23.6462 3.4251L14.4047 8.97772C13.7667 9.36108 13.5602 10.189 13.9436 10.827Z" fill="url(#paint3_linear_1_895)"/>
<path d="M14.5314 39.1722C14.5314 36.5349 15.6197 34.1475 17.3701 32.4339H15.8791C13.6498 32.4339 11.8361 30.6202 11.8361 28.391C11.8361 26.1617 13.6498 24.348 15.8785 24.348C15.8792 24.348 18.9886 24.3493 18.9884 24.3493C19.2323 24.3492 19.4716 24.2831 19.6808 24.1578L24.2455 21.424C26.38 20.1457 27.0609 17.3769 25.7625 15.2545C24.4823 13.162 21.7332 12.4926 19.6344 13.7616L15.4922 16.2664C8.98259 16.4708 3.75018 21.8311 3.75018 28.391C3.75018 34.6233 8.47542 39.772 14.5314 40.4446V39.1722Z" fill="url(#paint4_linear_1_895)"/>
<defs>
<linearGradient id="paint0_linear_1_895" x1="17.1937" y1="0" x2="17.1937" y2="5.97351" gradientUnits="userSpaceOnUse">
<stop stop-color="#0071BC"/>
<stop offset="1" stop-color="#17A1FA"/>
</linearGradient>
<linearGradient id="paint1_linear_1_895" x1="37.4657" y1="30.8032" x2="37.4657" y2="38.3096" gradientUnits="userSpaceOnUse">
<stop stop-color="#0071BC"/>
<stop offset="1" stop-color="#17A1FA"/>
</linearGradient>
<linearGradient id="paint2_linear_1_895" x1="23.965" y1="32.4336" x2="23.965" y2="46" gradientUnits="userSpaceOnUse">
<stop stop-color="#0071BC"/>
<stop offset="1" stop-color="#17A1FA"/>
</linearGradient>
<linearGradient id="paint3_linear_1_895" x1="24.8155" y1="3.23242" x2="24.8155" y2="30.8467" gradientUnits="userSpaceOnUse">
<stop stop-color="#0071BC"/>
<stop offset="1" stop-color="#17A1FA"/>
</linearGradient>
<linearGradient id="paint4_linear_1_895" x1="15.0857" y1="13.1191" x2="15.0857" y2="40.4446" gradientUnits="userSpaceOnUse">
<stop stop-color="#0071BC"/>
<stop offset="1" stop-color="#17A1FA"/>
</linearGradient>
</defs>
</svg>
