<svg width="36" height="37" viewBox="0 0 36 37" fill="none" xmlns="http://www.w3.org/2000/svg">
<path d="M35.3367 22.8586L24.7898 18.533C24.5385 18.4294 24.2583 18.4294 24.007 18.533L13.4601 22.8586C13.0595 23.0233 12.7969 23.4204 12.7969 23.8629C12.7969 24.3054 13.0595 24.7025 13.4602 24.8672L24.0071 29.1928C24.2542 29.2946 24.5377 29.2967 24.7899 29.1928L33.8906 25.4603V32.5141C33.8906 33.1118 34.3624 33.5955 34.9453 33.5955C35.5283 33.5955 36 33.1118 36 32.5141V23.8629C36 23.4552 35.6917 23.0042 35.3367 22.8586Z" fill="url(#paint0_linear_1_906)"/>
<path d="M3.16406 11.9676H8.4375V10.8862C8.4375 10.2884 8.90923 9.80477 9.49219 9.80477H13.7109C14.2939 9.80477 14.7656 10.2884 14.7656 10.8862V11.9676H20.0391C21.7838 11.9676 23.2031 10.5123 23.2031 8.72337V6.56057C23.2031 5.96284 22.7314 5.47917 22.1484 5.47917H16.875V2.23496C16.875 1.63724 16.4033 1.15356 15.8203 1.15356H7.38281C6.79985 1.15356 6.32812 1.63724 6.32812 2.23496V5.47917H1.05469C0.471727 5.47917 0 5.96284 0 6.56057V8.72337C0 10.5123 1.41933 11.9676 3.16406 11.9676ZM8.4375 3.31637H14.7656V5.47917H8.4375V3.31637Z" fill="url(#paint1_linear_1_906)"/>
<path d="M11.6016 14.1303C12.1835 14.1303 12.6562 13.6456 12.6562 13.0489V11.9675H10.5469V13.0489C10.5469 13.6456 11.0197 14.1303 11.6016 14.1303Z" fill="url(#paint2_linear_1_906)"/>
<path d="M1.05469 22.7817H10.7428C11.04 21.9203 11.6703 21.2063 12.5347 20.8513C17.2252 18.9378 22.1247 16.8938 23.2031 16.5008V13.0215C22.319 13.7077 21.2307 14.1305 20.0391 14.1305H14.5714C14.1345 15.3865 12.9748 16.2933 11.6016 16.2933C10.2284 16.2933 9.06863 15.3865 8.63177 14.1305H3.16406C1.97241 14.1305 0.884109 13.7077 0 13.0215V21.7003C0 22.298 0.471727 22.7817 1.05469 22.7817Z" fill="url(#paint3_linear_1_906)"/>
<path d="M30.7266 35.7583C31.3095 35.7583 31.7812 35.2746 31.7812 34.6769V28.6552L25.5736 31.2014C24.8263 31.5083 23.9771 31.5123 23.2212 31.1993L17.0156 28.655V34.6769C17.0156 35.2746 17.4874 35.7583 18.0703 35.7583H30.7266Z" fill="url(#paint4_linear_1_906)"/>
<defs>
<linearGradient id="paint0_linear_1_906" x1="24.3984" y1="18.4553" x2="24.3984" y2="33.5955" gradientUnits="userSpaceOnUse">
<stop stop-color="#0071BC"/>
<stop offset="1" stop-color="#17A1FA"/>
</linearGradient>
<linearGradient id="paint1_linear_1_906" x1="11.6016" y1="1.15356" x2="11.6016" y2="11.9676" gradientUnits="userSpaceOnUse">
<stop stop-color="#0071BC"/>
<stop offset="1" stop-color="#17A1FA"/>
</linearGradient>
<linearGradient id="paint2_linear_1_906" x1="11.6016" y1="11.9675" x2="11.6016" y2="14.1303" gradientUnits="userSpaceOnUse">
<stop stop-color="#0071BC"/>
<stop offset="1" stop-color="#17A1FA"/>
</linearGradient>
<linearGradient id="paint3_linear_1_906" x1="11.6016" y1="13.0215" x2="11.6016" y2="22.7817" gradientUnits="userSpaceOnUse">
<stop stop-color="#0071BC"/>
<stop offset="1" stop-color="#17A1FA"/>
</linearGradient>
<linearGradient id="paint4_linear_1_906" x1="24.3984" y1="28.655" x2="24.3984" y2="35.7583" gradientUnits="userSpaceOnUse">
<stop stop-color="#0071BC"/>
<stop offset="1" stop-color="#17A1FA"/>
</linearGradient>
</defs>
</svg>
