<svg width="84" height="84" viewBox="0 0 84 84" fill="none" xmlns="http://www.w3.org/2000/svg">
<path d="M42.0103 3.19073e-05C41.7836 -0.00152102 41.5599 0.0536177 41.3617 0.164114L5.92137 19.9428C4.98677 20.4644 5.03911 21.825 6.00867 22.2786L14.4369 26.2221V30.186H13.1296C12.4048 30.186 11.812 30.7687 11.812 31.4937V43.3086C11.812 44.0376 12.4008 44.6265 13.1296 44.6265H18.3818C19.1066 44.6265 19.6891 44.0336 19.6891 43.3086V31.4937C19.6891 30.7727 19.1026 30.186 18.3818 30.186H17.0643V27.4528L26.8612 32.0372C27.2313 32.9594 27.7946 33.9278 28.5838 34.8141V35.1782C26.084 35.4422 24.1749 37.6631 24.1749 40.3139C24.1749 43.0979 26.265 45.4488 29.0683 45.4778C29.1813 45.4778 29.2657 45.4728 29.3783 45.4629C30.3003 47.9912 31.9811 50.1825 34.123 51.737V54.5883L33.7361 54.2012C33.4881 53.9517 33.1499 53.8122 32.798 53.8142C32.4547 53.8189 32.1273 53.9581 31.8854 54.2012L28.2481 57.8344C21.8039 58.387 15.1346 62.6108 12.0736 70.0283C11.8618 70.6204 10.5048 73.5586 10.5048 78.0413V82.6821C10.5048 83.4071 11.0873 84 11.8121 84H72.1884C72.9132 84 73.4957 83.4071 73.4957 82.6821V78.0413C73.4957 74.4173 72.6052 71.6489 71.8654 69.9031C68.9634 62.9045 62.4541 58.4217 55.755 57.8292L52.115 54.2011C51.8645 53.949 51.5221 53.8091 51.1666 53.8141C50.8234 53.8188 50.496 53.958 50.2541 54.2011L49.8771 54.5782V51.7347C52.0189 50.1801 53.6972 47.9915 54.6192 45.4632C54.7318 45.4732 54.8216 45.4781 54.9347 45.4781C57.6726 45.4781 59.8281 43.1084 59.8281 40.3142C59.8281 37.6992 57.965 35.4576 55.4192 35.1836L55.4241 34.7936C56.1621 33.9875 56.7671 32.9608 57.1364 32.0425L77.9915 22.2787C78.9608 21.8249 79.0132 20.4645 78.0788 19.9429L42.641 0.164263C42.4485 0.0567435 42.2311 0.00152039 42.0103 3.19073e-05ZM42.0003 2.82043L74.5621 20.9813L57.8647 28.8015C57.9401 27.601 57.8067 26.8086 57.7546 26.5195V18.8865C57.7546 18.2724 57.4634 17.7365 57.124 17.3558C56.7842 16.975 56.3846 16.7009 55.9321 16.4558C55.0269 15.9656 53.8882 15.5956 52.5126 15.2815C49.7614 14.6534 46.0797 14.2841 42.0004 14.2841C37.9211 14.2841 34.2395 14.6533 31.4883 15.2815C30.1127 15.5956 28.974 15.9656 28.0689 16.4558C27.6165 16.7009 27.2165 16.975 26.8769 17.3558C26.5376 17.7365 26.2493 18.2724 26.2489 18.8865L26.2439 26.499C26.1913 26.788 26.0678 27.6009 26.1412 28.8015L17.0646 24.5529V16.7276L42.0003 2.82043ZM51.9204 17.8404C53.1542 18.122 54.1316 18.4619 54.6836 18.7608C54.9371 18.8981 55.0715 19.0128 55.1296 19.0711V23.7709C54.4272 23.4688 53.5651 23.2062 52.5124 22.9658C49.7612 22.3377 46.0795 21.9684 42.0002 21.9684C37.9209 21.9684 34.2393 22.3377 31.4881 22.9658C30.4354 23.2062 29.5109 23.4865 28.8735 23.7607V19.0711C28.9321 19.0128 29.066 18.8981 29.3194 18.7608C29.8714 18.4619 30.8361 18.1221 32.0699 17.8404C34.5375 17.277 38.0816 16.9096 42.0002 16.9096C45.9189 16.9096 49.4528 17.277 51.9204 17.8404ZM14.4371 18.1942V23.3222L9.43857 20.9813L14.4371 18.1942ZM51.9204 25.5247C53.1542 25.8064 54.1316 26.1565 54.6836 26.4554C54.8562 26.5499 55.0775 26.6942 55.132 26.7503C55.142 26.838 55.1519 26.8791 55.1668 26.9298C55.1965 27.0795 55.7773 30.4167 53.5262 32.968H46.4002C43.2069 32.968 40.5114 30.5916 40.0355 27.4836C39.9384 26.8491 39.3981 26.3764 38.7564 26.3682C38.0307 26.359 37.436 26.9422 37.4286 27.6682C37.3991 30.5777 35.0316 32.968 32.0918 32.968H30.4641C28.1404 30.2372 28.8442 26.953 28.8544 26.7759C28.9065 26.7213 29.0573 26.5981 29.3206 26.4554C29.8726 26.1565 30.8168 25.8166 32.0506 25.535C34.5182 24.9716 38.0828 24.594 42.0008 24.594C45.9189 24.594 49.4528 24.9613 51.9204 25.5247ZM38.9449 31.6603C40.3191 33.7279 42.9762 35.5935 46.399 35.5935H52.7945V40.8651C52.7945 46.8181 48.0054 51.6416 42.0003 51.6416C35.9953 51.6416 31.2088 46.8133 31.2088 40.8651V35.5935H32.0906C35.3514 35.5935 37.7963 33.6637 38.9449 31.6603ZM14.4371 32.8116H17.0645V41.9984H14.4371V32.8116ZM28.584 37.8447V40.8651C28.584 41.5294 28.6286 42.1831 28.7199 42.8215C27.7139 42.6572 26.8 41.6428 26.8 40.3138C26.8 39.091 27.5932 38.0697 28.584 37.8447ZM55.4193 37.8447C56.3801 38.0764 57.2008 39.05 57.2008 40.3138C57.2008 41.6428 56.3117 42.6477 55.2783 42.8163C55.372 42.178 55.4192 41.5294 55.4192 40.8651L55.4193 37.8447ZM36.7507 53.2031C38.3636 53.8881 40.1366 54.2594 42.0003 54.2594C43.8641 54.2594 45.6396 53.8932 47.2526 53.2082V57.2029L42.0003 62.4566L36.7507 57.208V53.2031ZM32.8058 56.9824L40.1496 64.3078L38.0682 66.3923L30.7346 59.0541L32.8058 56.9824ZM51.1847 56.9824L53.2687 59.0644L45.9453 66.4L43.8511 64.3078L51.1847 56.9824ZM55.5833 60.4566C61.1632 60.9977 66.3689 64.4957 69.0766 70.0819C70.6612 73.3828 70.871 76.3614 70.871 78.0406V81.3738H61.6866V77.438C61.6866 76.6948 61.094 76.1096 60.3511 76.1227C59.6262 76.1376 59.0618 76.7129 59.0618 77.438V81.3738H24.9415V77.438C24.9415 76.6937 24.3474 76.1089 23.6034 76.1227C22.8786 76.1376 22.3141 76.7129 22.3141 77.438V81.3738H13.1298V78.0406C13.1298 75.5816 13.598 73.2677 14.4559 71.1502C16.7661 65.3964 22.069 61.0723 28.4199 60.4618L37.1377 69.1717C37.6497 69.6807 38.4765 69.6807 38.9884 69.1717L42.0003 66.1667L45.0148 69.1717C45.5268 69.6807 46.3535 69.6807 46.8655 69.1717L55.5833 60.4566Z" fill="#F4CB00"/>
</svg>
