<svg width="64" height="103" viewBox="0 0 64 103" fill="none" xmlns="http://www.w3.org/2000/svg">
<path d="M46.6536 102.255C50.1686 102.255 53.0445 99.3786 53.0445 95.8636C53.0445 93.6268 52.0859 91.7095 50.1686 90.7509C49.8491 90.4314 49.8491 90.4314 49.5295 90.1118C33.5523 79.5668 32.5936 67.1046 35.4695 57.5182H57.5182C61.0332 57.5182 63.9091 54.6423 63.9091 51.1273V6.39091C63.9091 2.87592 61.0332 0 57.5182 0H6.39091C2.87591 0 0 2.87592 0 6.39091V63.27C0 71.2586 2.55636 79.2473 7.34954 85.6382C13.1014 93.3072 24.605 101.935 46.6536 102.255Z" fill="#0071BC" fill-opacity="0.11"/>
</svg>
