<svg width="91" height="91" viewBox="0 0 91 91" fill="none" xmlns="http://www.w3.org/2000/svg">
<path d="M19.8369 42.8207H31.6507C33.7307 42.8207 35.4233 41.1281 35.4233 39.0473V25.9846C35.4233 23.9045 33.7307 22.2119 31.6507 22.2119H19.8369C17.7568 22.2119 16.0642 23.9045 16.0642 25.9846V39.0473C16.0642 41.1281 17.7568 42.8207 19.8369 42.8207ZM18.908 25.9846C18.908 25.4812 19.3328 25.0557 19.8369 25.0557H31.6507C32.1547 25.0557 32.5796 25.4812 32.5796 25.9846V39.0473C32.5796 39.5514 32.1547 39.977 31.6507 39.977H19.8369C19.3328 39.977 18.908 39.5514 18.908 39.0473V25.9846Z" fill="#F0C800"/>
<path d="M40.3026 25.707H56.1321C56.9179 25.707 57.5539 25.0703 57.5539 24.2852C57.5539 23.5 56.9179 22.8633 56.1321 22.8633H40.3026C39.5167 22.8633 38.8807 23.5 38.8807 24.2852C38.8807 25.0703 39.5167 25.707 40.3026 25.707Z" fill="#F0C800"/>
<path d="M40.3026 34.2639H56.1321C56.9179 34.2639 57.5539 33.6272 57.5539 32.842C57.5539 32.0569 56.9179 31.4202 56.1321 31.4202H40.3026C39.5167 31.4202 38.8807 32.0569 38.8807 32.842C38.8807 33.6272 39.5167 34.2639 40.3026 34.2639Z" fill="#F0C800"/>
<path d="M89.095 80.9372L80.6914 70.1884C80.3165 69.708 79.7763 69.4025 79.1696 69.3282C78.56 69.254 77.963 69.4192 77.4839 69.7947L76.2519 70.7586L74.593 68.6389C77.8718 65.2673 79.768 60.8707 79.9196 56.1383C80.0821 51.1083 78.2755 46.3178 74.8334 42.6478C71.9585 39.5837 68.2888 37.7175 64.4401 37.0263V14.0569C64.4401 11.6832 62.5086 9.75248 60.1356 9.75248H57.1238V6.99902C57.1238 4.62534 55.1924 2.69458 52.8194 2.69458H5.72632C3.35335 2.69444 1.42188 4.6252 1.42188 6.99902V68.0987C1.42188 70.4724 3.35335 72.4031 5.72632 72.4031H8.73813V75.1614C8.73813 77.5324 10.6696 79.461 13.0426 79.461H60.1354C62.5083 79.461 64.4398 77.5324 64.4398 75.1614V74.0689C67.3532 73.5489 70.0902 72.3433 72.4676 70.5359L74.0127 72.5101L72.7765 73.4771C71.7865 74.2511 71.6088 75.687 72.3835 76.6797L80.7926 87.4305C81.2425 88.0039 81.9146 88.3045 82.5936 88.304C83.0837 88.304 83.5795 88.1464 83.9947 87.8214L88.7005 84.1396C89.692 83.3658 89.8698 81.9293 89.095 80.9372ZM5.72632 69.5594C4.92097 69.5594 4.26562 68.904 4.26562 68.0987V6.99902C4.26562 6.19367 4.92097 5.53819 5.72632 5.53819H52.819C53.6243 5.53819 54.2797 6.19353 54.2797 6.99888V9.75234H13.0427C10.6698 9.75234 8.73827 11.6831 8.73827 14.0568V69.5592L5.72632 69.5594ZM61.5961 75.1614C61.5961 75.9641 60.9407 76.6173 60.1354 76.6173H13.0427C12.2374 76.6173 11.582 75.9639 11.582 75.1614V14.0569C11.582 13.2516 12.2374 12.5962 13.0427 12.5962H60.1354C60.9407 12.5962 61.5961 13.2516 61.5961 14.0569V36.7175C57.7325 36.6135 53.8464 37.7065 50.51 39.977H40.3026C39.5168 39.977 38.8807 40.6137 38.8807 41.3989C38.8807 42.184 39.5168 42.8207 40.3026 42.8207H47.206C45.6349 44.5348 44.432 46.4723 43.6115 48.534H17.4859C16.7001 48.534 16.0641 49.1707 16.0641 49.9559C16.0641 50.741 16.7001 51.3777 17.4859 51.3777H42.7413C42.321 53.2529 42.1944 55.1793 42.3527 57.091H17.4861C16.7002 57.091 16.0642 57.7277 16.0642 58.5128C16.0642 59.298 16.7002 59.9347 17.4861 59.9347H42.8024C43.2797 61.9278 44.0757 63.8621 45.2134 65.6472H17.4861C16.7002 65.6472 16.0642 66.284 16.0642 67.0691C16.0642 67.8543 16.7002 68.491 17.4861 68.491H47.4256C50.8609 72.1148 55.4929 74.2011 60.4881 74.3618C60.8621 74.373 61.2215 74.3582 61.5962 74.3487C61.5961 74.6196 61.5961 74.8904 61.5961 75.1614ZM60.5797 71.5193C56.3099 71.3818 52.3483 69.5907 49.4268 66.4746C43.3935 60.0422 43.7198 49.9008 50.1517 43.8677C53.1399 41.0656 57.0028 39.5402 61.0795 39.5402C61.2544 39.5402 61.4294 39.543 61.6057 39.5486C65.8755 39.6861 69.8371 41.4772 72.7586 44.5933C78.7919 51.0257 78.4656 61.1671 72.0325 67.2002C68.9179 70.1232 64.8702 71.6491 60.5797 71.5193ZM82.6853 85.2347L74.9705 75.3712L78.7946 72.3795L86.508 82.2452L82.6853 85.2347Z" fill="#F0C800"/>
<path d="M70.405 46.7998C65.5881 41.667 57.4957 41.4088 52.3635 46.2228C47.2273 51.0349 46.9677 59.1307 51.7817 64.2691C54.2895 66.9421 57.6886 68.2932 61.0947 68.2932C64.2272 68.2932 67.3667 67.1511 69.8287 64.8454C74.9595 60.0305 75.2178 51.9353 70.405 46.7998ZM67.8834 62.7709C63.89 66.5151 57.5985 66.3123 53.8564 62.3244C50.1143 58.3302 50.3169 52.038 54.3077 48.2973C56.2184 46.5041 58.658 45.6167 61.0921 45.6167C63.7387 45.6167 66.3811 46.6671 68.3306 48.7444C72.0713 52.7366 71.87 59.0294 67.8834 62.7709Z" fill="#F0C800"/>
<path d="M68.6777 53.8377C67.789 49.7616 63.7469 47.1712 59.6701 48.0592C58.9023 48.2265 58.4163 48.984 58.583 49.7511C58.751 50.5176 59.5105 51.0022 60.2756 50.8376C62.8347 50.2837 65.3451 51.9019 65.9006 54.4444C66.0451 55.1095 66.6338 55.5635 67.2878 55.5628C67.3878 55.5628 67.4906 55.5524 67.592 55.5303C68.3596 55.3629 68.8456 54.6048 68.6777 53.8377Z" fill="#F0C800"/>
</svg>
