<svg width="58" height="58" viewBox="0 0 58 58" fill="none" xmlns="http://www.w3.org/2000/svg">
<g clip-path="url(#clip0_1_844)">
<path d="M29.3142 20.5613H7.56599C7.09678 20.5613 6.71649 20.9417 6.71649 21.4108C6.71649 21.88 7.09678 22.2603 7.56599 22.2603H29.3143C29.7835 22.2603 30.1638 21.8799 30.1638 21.4108C30.1638 20.9417 29.7835 20.5613 29.3142 20.5613Z" fill="#F4CB00"/>
<path d="M29.3142 26.5308H7.56599C7.09678 26.5308 6.71649 26.9112 6.71649 27.3803C6.71649 27.8494 7.09678 28.2298 7.56599 28.2298H29.3143C29.7835 28.2298 30.1638 27.8494 30.1638 27.3803C30.1638 26.9112 29.7835 26.5308 29.3142 26.5308Z" fill="#F4CB00"/>
<path d="M29.3142 32.5H7.56599C7.09678 32.5 6.71649 32.8804 6.71649 33.3495C6.71649 33.8186 7.09678 34.199 7.56599 34.199H29.3143C29.7835 34.199 30.1638 33.8186 30.1638 33.3495C30.1638 32.8804 29.7835 32.5 29.3142 32.5Z" fill="#F4CB00"/>
<path d="M30.1638 39.3192C30.1638 38.85 29.7835 38.4697 29.3143 38.4697H7.56599C7.09678 38.4697 6.71649 38.8501 6.71649 39.3192C6.71649 39.7883 7.09678 40.1687 7.56599 40.1687H29.3143C29.7835 40.1687 30.1638 39.7884 30.1638 39.3192Z" fill="#F4CB00"/>
<path d="M7.56599 47.218C7.09678 47.218 6.71649 47.5984 6.71649 48.0675C6.71649 48.5366 7.09678 48.917 7.56599 48.917H18.4679C18.9372 48.917 19.3174 48.5366 19.3174 48.0675C19.3174 47.5984 18.9372 47.218 18.4679 47.218H7.56599Z" fill="#F4CB00"/>
<path d="M39.104 10.5185V7.76191C39.104 6.71179 38.2498 5.85742 37.1995 5.85742H19.7579C18.7078 5.85742 17.8536 6.71179 17.8536 7.76191V10.5185C17.8536 11.5686 18.7078 12.4229 19.7579 12.4229H21.2308C21.7 12.4229 22.0803 12.0425 22.0803 11.5734C22.0803 11.1042 21.7 10.7239 21.2308 10.7239H19.7579C19.6448 10.7239 19.5527 10.6318 19.5527 10.5186V7.76191C19.5527 7.64874 19.6448 7.55653 19.7579 7.55653H37.1995C37.3128 7.55653 37.4049 7.64862 37.4049 7.76191V10.5185C37.4049 10.6317 37.3128 10.7238 37.1995 10.7238H25.2025C24.7333 10.7238 24.353 11.1042 24.353 11.5733C24.353 12.0425 24.7333 12.4227 25.2025 12.4227H37.1996C38.2498 12.423 39.104 11.5686 39.104 10.5185Z" fill="#F4CB00"/>
<path d="M45.4562 51.8031C44.9869 51.8031 44.6067 52.1835 44.6067 52.6526V53.7966C44.6067 55.1774 43.4833 56.3009 42.1022 56.3009H4.51983C3.13904 56.3009 2.01552 55.1775 2.01552 53.7966V12.9625C2.01552 12.7787 2.03704 12.5983 2.07545 12.4229H9.81063C11.4256 12.4229 12.7394 11.109 12.7394 9.4941V1.75903C12.9149 1.72063 13.0951 1.69911 13.279 1.69911H42.1021C43.483 1.69911 44.6066 2.82252 44.6066 4.20341V15.5136C44.6066 15.9829 44.9868 16.3631 45.456 16.3631C45.9253 16.3631 46.3055 15.9827 46.3055 15.5136V4.2033C46.3057 1.88568 44.42 0 42.1022 0H13.2791C12.1563 0 11.1007 0.437266 10.3068 1.23114L1.54756 9.99039C0.753681 10.7843 0.316528 11.8398 0.316528 12.9627V53.7967C0.316528 56.1144 2.20209 58 4.51983 58H42.1022C44.42 58 46.3057 56.1143 46.3057 53.7967V52.6527C46.3057 52.1835 45.9254 51.8031 45.4562 51.8031ZM11.0404 2.90045V9.4941C11.0404 10.1722 10.4887 10.7239 9.81063 10.7239H3.21698L11.0404 2.90045Z" fill="#F4CB00"/>
<path d="M57.0918 30.3592C57.6881 29.4839 57.8424 28.4042 57.5151 27.3969C57.1878 26.3896 56.4283 25.6068 55.4314 25.2493C54.7701 25.0121 54.3288 24.4049 54.3078 23.7026C54.2757 22.644 53.7658 21.6797 52.9088 21.0571C52.0521 20.4346 50.9773 20.2478 49.9609 20.5444C49.286 20.7413 48.5727 20.5093 48.1426 19.9536C47.4946 19.1159 46.5154 18.6355 45.4562 18.6355C44.3971 18.6355 43.4178 19.1159 42.7696 19.9536C42.3396 20.5094 41.6258 20.7411 40.9514 20.5444C39.935 20.2476 38.8603 20.4346 38.0033 21.0571C37.1464 21.6797 36.6368 22.6438 36.6046 23.7025C36.5834 24.4048 36.1423 25.0119 35.4809 25.2492C34.484 25.6067 33.7244 26.3896 33.3973 27.3968C33.07 28.4041 33.2243 29.4839 33.8206 30.3591C34.2162 30.9399 34.2162 31.6903 33.8206 32.2709C33.2243 33.1463 33.07 34.2259 33.3973 35.2332C33.7244 36.2405 34.484 37.0233 35.4809 37.3809C36.1423 37.6183 36.5835 38.2253 36.6046 38.9277C36.6342 39.9014 37.0804 40.8164 37.8292 41.4378C38.3232 41.8478 38.9167 42.1044 39.5378 42.1902V49.9248C39.5378 50.5774 39.8918 51.1806 40.4615 51.4988C41.0305 51.8168 41.73 51.8027 42.2861 51.4602L45.4019 49.5421C45.4527 49.5108 45.4829 49.5249 45.5109 49.5421L48.6265 51.4602C49.1823 51.8023 49.8816 51.817 50.4512 51.4987C51.021 51.1804 51.3749 50.5772 51.3749 49.9247V42.19C51.9958 42.1043 52.5893 41.8477 53.0833 41.4378C53.8322 40.8164 54.2785 39.9016 54.3081 38.9276C54.3292 38.2252 54.7704 37.618 55.4317 37.3808C56.4287 37.0233 57.1883 36.2404 57.5154 35.2331C57.8427 34.2258 57.6884 33.1461 57.0921 32.2708C56.6961 31.6904 56.6961 30.94 57.0918 30.3592ZM49.517 50.0134L46.4013 48.0953C45.8221 47.7388 45.0907 47.7382 44.511 48.0953L41.3953 50.0133C41.3244 50.0564 41.2368 50.0067 41.2368 49.9247V42.0289C41.8209 41.9612 42.4 42.1989 42.7696 42.6766C43.4179 43.5142 44.3971 43.9946 45.4563 43.9946C46.5154 43.9946 47.4946 43.5142 48.1426 42.6766C48.5124 42.1988 49.0916 41.9612 49.6756 42.0289V49.9247C49.6756 50.0073 49.5869 50.0565 49.517 50.0134ZM55.6876 33.2278C55.9858 33.6653 56.0628 34.2049 55.8992 34.7083C55.7357 35.2117 55.3561 35.603 54.8577 35.7817C53.5344 36.2564 52.6519 37.4711 52.6094 38.8764C52.5944 39.3704 52.3772 39.8157 51.9981 40.1304C51.5718 40.4842 50.9945 40.6176 50.4369 40.4549C49.0874 40.0612 47.6593 40.5252 46.7988 41.6369C46.4749 42.0555 45.9854 42.2956 45.4561 42.2956C44.9268 42.2956 44.4373 42.0556 44.1132 41.6369C43.4563 40.7878 42.4684 40.3165 41.4372 40.3165C41.118 40.3165 40.7944 40.3617 40.4754 40.4548C39.9124 40.6189 39.3368 40.4813 38.914 40.1303C38.5348 39.8156 38.3176 39.3703 38.3028 38.8764C38.2602 37.4711 37.3778 36.2564 36.0543 35.7816C35.5561 35.6029 35.1766 35.2117 35.0129 34.7083C34.8493 34.2049 34.9263 33.6652 35.2245 33.2277C36.016 32.0658 36.016 30.5645 35.2245 29.4025C34.9263 28.965 34.8493 28.4254 35.0129 27.9218C35.1765 27.4184 35.5561 27.0271 36.0543 26.8485C37.3778 26.3737 38.2602 25.159 38.3028 23.7538C38.3188 23.2246 38.5734 22.7427 39.0018 22.4317C39.4298 22.1205 39.9668 22.0271 40.4753 22.1753C41.8245 22.5692 43.253 22.1051 44.1132 20.9933C44.4372 20.5746 44.9266 20.3345 45.4561 20.3345C45.9854 20.3345 46.4748 20.5745 46.7988 20.9932C47.6592 22.1051 49.087 22.5691 50.4368 22.1753C50.945 22.0269 51.482 22.1204 51.9103 22.4316C52.3386 22.7426 52.5935 23.2246 52.6093 23.7537C52.6519 25.1589 53.5344 26.3737 54.8577 26.8484C55.3561 27.027 55.7355 27.4183 55.8992 27.9217C56.0628 28.4251 55.9858 28.9649 55.6876 29.4023C54.8959 30.5644 54.8959 32.0659 55.6876 33.2278Z" fill="#F4CB00"/>
<path d="M45.4562 24.1951C41.5301 24.1951 38.336 27.3891 38.336 31.3153C38.336 35.2414 41.5301 38.4354 45.4562 38.4354C49.3822 38.4354 52.5762 35.2414 52.5762 31.3153C52.5762 27.3891 49.3822 24.1951 45.4562 24.1951ZM45.4562 36.7364C42.4669 36.7364 40.035 34.3045 40.035 31.3154C40.035 28.3262 42.4669 25.8942 45.4562 25.8942C48.4454 25.8942 50.8773 28.3261 50.8773 31.3154C50.8773 34.3046 48.4453 36.7364 45.4562 36.7364Z" fill="#F4CB00"/>
</g>
<defs>
<clipPath id="clip0_1_844">
<rect width="58" height="58" fill="white"/>
</clipPath>
</defs>
</svg>
