<svg width="66" height="66" viewBox="0 0 66 66" fill="none" xmlns="http://www.w3.org/2000/svg">
<path d="M60.2972 11.3566C60.0561 11.1155 59.7248 10.9788 59.3857 10.9788C59.0454 10.9788 58.7141 11.1155 58.4729 11.3566C58.2333 11.5962 58.0965 11.9276 58.0965 12.268C58.0965 12.607 58.2333 12.9397 58.4729 13.1794C58.714 13.4192 59.0452 13.5571 59.3857 13.5571C59.7247 13.5571 60.0561 13.4193 60.2972 13.1794C60.537 12.9397 60.6736 12.6071 60.6736 12.268C60.6736 11.9276 60.537 11.5962 60.2972 11.3566Z" fill="#F4CB00"/>
<path d="M30.6888 41.7174C30.4479 41.4764 30.1165 41.3396 29.7774 41.3396C29.437 41.3396 29.1056 41.4764 28.8646 41.7174C28.6249 41.9571 28.4882 42.2885 28.4882 42.6288C28.4882 42.9678 28.6249 43.3004 28.8646 43.5403C29.1056 43.7801 29.4369 43.918 29.7774 43.918C30.1164 43.918 30.4478 43.7802 30.6888 43.5403C30.9286 43.3005 31.0653 42.9679 31.0653 42.6288C31.0654 42.2885 30.9287 41.9571 30.6888 41.7174Z" fill="#F4CB00"/>
<path d="M63.4197 15.6381C63.0678 15.019 62.2804 14.8027 61.6618 15.1547C61.0429 15.5066 60.8265 16.2937 61.1785 16.9125C65.0078 23.6464 63.8518 32.1799 58.3671 37.6645L57.3896 38.642C57.1534 38.0224 56.7876 37.4411 56.2891 36.9428L43.0432 23.697C43.9095 23.2708 44.7098 22.7022 45.4125 21.9996L47.953 19.459C48.4564 18.9556 48.4564 18.1392 47.953 17.6358C47.4495 17.1325 46.6334 17.1325 46.1297 17.6358L43.5893 20.1765C42.3957 21.3699 40.809 22.0272 39.1212 22.0272H34.0427C33.7009 22.0272 33.3731 22.163 33.1311 22.4047L29.2433 26.2925C28.0888 27.4472 26.2102 27.4472 25.0558 26.2925C23.9011 25.1381 23.9011 23.2595 25.0558 22.105L33.9317 13.2292C39.356 7.8048 47.8242 6.61191 54.5241 10.3283C55.1467 10.6734 55.9315 10.4489 56.2769 9.82618C56.6222 9.20357 56.3974 8.41879 55.7748 8.07345C52.0793 6.02396 47.7253 5.20373 43.5142 5.76461C39.5733 6.28938 35.9661 7.93951 33.0093 10.5579C29.3768 7.33765 24.7526 5.57666 19.8567 5.57666C14.5527 5.57666 9.56639 7.64212 5.81586 11.3925C2.06534 15.1429 0 20.1297 0 25.4335C0 30.7375 2.06546 35.7238 5.81586 39.4744L6.30171 39.9602C6.38627 40.0446 6.48012 40.1137 6.57925 40.1698C6.66548 41.2851 7.13277 42.3762 7.98394 43.2272C8.93127 44.1744 10.175 44.6478 11.419 44.6478C11.4836 44.6478 11.5483 44.6457 11.6129 44.6431C11.6103 44.7083 11.6081 44.7736 11.6081 44.8392C11.6081 46.1367 12.1134 47.3567 13.031 48.2743C13.9783 49.2215 15.222 49.695 16.4661 49.6948C16.5307 49.6948 16.5954 49.6928 16.66 49.6902C16.6574 49.7554 16.6552 49.8206 16.6552 49.8862C16.6552 51.1838 17.1605 52.4038 18.0782 53.3213C19.0254 54.2684 20.2693 54.7419 21.5133 54.7419C21.5786 54.7419 21.644 54.7398 21.7094 54.7373C21.657 56.0458 22.1284 57.3717 23.1253 58.3687C24.0429 59.2862 25.2629 59.7915 26.5604 59.7915C27.8581 59.7915 29.078 59.2862 29.9954 58.3687L31.7972 56.5668L34.2308 59.0002C35.1483 59.9179 36.3683 60.4232 37.6659 60.4232C38.9635 60.4232 40.1834 59.9179 41.101 59.0003C42.1098 57.9915 42.5811 56.6456 42.5153 55.3217C42.5963 55.3257 42.6775 55.328 42.7586 55.328C44.0027 55.328 45.2469 54.8546 46.1939 53.9074C47.1903 52.911 47.6617 51.5861 47.6098 50.2783C47.6751 50.2808 47.7403 50.283 47.8059 50.283C49.1035 50.283 50.3234 49.7777 51.241 48.8602C52.2373 47.8638 52.7087 46.5389 52.6569 45.2311C52.7221 45.2336 52.7874 45.2358 52.853 45.2358C54.1505 45.2358 55.3705 44.7305 56.2881 43.813C56.7541 43.347 57.1049 42.8087 57.3416 42.2341C57.467 42.173 57.585 42.0917 57.6893 41.9875L60.1893 39.4875C66.4929 33.1852 67.8209 23.3777 63.4197 15.6381ZM11.4192 42.0717C10.8102 42.0717 10.2377 41.8346 9.80706 41.404C9.37651 40.9734 9.13932 40.4009 9.13932 39.792C9.13932 39.1832 9.37638 38.6106 9.80706 38.18L12.0286 35.9584C12.4592 35.5278 13.0318 35.2907 13.6407 35.2907C14.2496 35.2907 14.8222 35.5278 15.2527 35.9584C16.1416 36.8474 16.1416 38.2936 15.2527 39.1824L13.0311 41.4041C12.6006 41.8345 12.0282 42.0717 11.4192 42.0717ZM14.8545 46.4513C14.4238 46.0207 14.1868 45.4481 14.1868 44.8393C14.1868 44.2304 14.4238 43.6579 14.8545 43.2273L17.0762 41.0056C17.0762 41.0056 17.0762 41.0056 17.0762 41.0055C17.5068 40.575 18.0792 40.3378 18.6882 40.3378C19.297 40.3378 19.8696 40.5748 20.3002 41.0055C21.1891 41.8944 21.1891 43.3406 20.3002 44.2295L18.0786 46.4512C17.1895 47.34 15.7429 47.34 14.8545 46.4513ZM19.9016 51.4984C19.4709 51.0678 19.2338 50.4952 19.2338 49.8864C19.2338 49.2774 19.4709 48.705 19.9016 48.2744L22.1233 46.0527C22.5538 45.6222 23.1263 45.3848 23.7352 45.3848C24.3442 45.3848 24.9167 45.6219 25.3472 46.0526C26.2362 46.9416 26.2362 48.3878 25.3472 49.2766L23.1255 51.4984C22.2367 52.3873 20.7905 52.3873 19.9016 51.4984ZM30.3944 54.324L28.1727 56.5458C27.7422 56.9763 27.1697 57.2135 26.5607 57.2135C25.9519 57.2135 25.3793 56.9765 24.9488 56.5458C24.0598 55.6567 24.0598 54.2105 24.9488 53.3217L27.1705 51.1C27.601 50.6695 28.1735 50.4322 28.7824 50.4322C29.3913 50.4322 29.9639 50.6692 30.3944 51.0999C30.8251 51.5305 31.0621 52.103 31.0621 52.7119C31.0623 53.3211 30.8251 53.8934 30.3944 54.324ZM54.4659 41.9898C54.0353 42.4205 53.4627 42.6576 52.8539 42.6576C52.2449 42.6576 51.6725 42.4205 51.2419 41.9898L45.8759 36.6239C45.8757 36.6236 45.8755 36.6235 45.8753 36.6232L40.8286 31.5765C40.3251 31.0732 39.509 31.0732 39.0054 31.5765C38.502 32.0799 38.502 32.8963 39.0054 33.3997L49.4187 43.8127C50.3076 44.7018 50.3076 46.148 49.4187 47.0368C48.9881 47.4675 48.4155 47.7045 47.8067 47.7045C47.1977 47.7045 46.6253 47.4675 46.1947 47.0368L35.7814 36.6236C35.2779 36.1203 34.4618 36.1203 33.9582 36.6236C33.4548 37.127 33.4548 37.9433 33.9582 38.4468L39.0043 43.4929C39.0047 43.4933 39.0051 43.4938 39.0055 43.4942L44.3716 48.86C45.2605 49.7491 45.2605 51.1954 44.3717 52.0842C43.4827 52.9732 42.0362 52.9732 41.1476 52.0842L35.7815 46.7181C35.6823 46.619 35.5708 46.5401 35.452 46.48L33.9215 44.9495C33.418 44.4463 32.6019 44.4463 32.0983 44.9495C31.5949 45.4529 31.5949 46.2693 32.0983 46.7728L39.2786 53.9529C40.1676 54.8419 40.1676 56.2881 39.2786 57.1769C38.8481 57.6076 38.2755 57.8447 37.6667 57.8447C37.0577 57.8447 36.4852 57.6076 36.0547 57.1769L33.3224 54.4448C33.5306 53.8986 33.6407 53.3137 33.6407 52.7117C33.6407 51.4142 33.1353 50.1942 32.2178 49.2766C31.3001 48.3591 30.0801 47.8538 28.7827 47.8538C28.7171 47.8538 28.6519 47.856 28.5866 47.8586C28.6383 46.5507 28.167 45.2258 27.1707 44.2295C26.253 43.3119 25.0331 42.8066 23.7356 42.8066C23.67 42.8066 23.6048 42.8088 23.5396 42.8114C23.5914 41.5035 23.12 40.1786 22.1237 39.1823C21.206 38.2647 19.986 37.7594 18.6886 37.7594C18.623 37.7594 18.5577 37.7616 18.4925 37.7642C18.5443 36.4563 18.0729 35.1314 17.0766 34.1351C15.1824 32.2409 12.1002 32.241 10.206 34.1351L7.98445 36.3566C7.70421 36.6369 7.46664 36.9435 7.26915 37.2681C4.24101 34.0518 2.5789 29.8705 2.5789 25.4333C2.5789 20.818 4.37611 16.4789 7.63976 13.2155C10.9031 9.95212 15.2424 8.15479 19.8575 8.15479C24.0516 8.15479 28.0175 9.63927 31.1553 12.3594L23.2332 20.2816C22.187 21.328 21.6107 22.719 21.6107 24.1986C21.6107 25.6783 22.187 27.0693 23.2332 28.1157C24.3131 29.1955 25.7317 29.7355 27.1502 29.7355C28.5687 29.7355 29.9873 29.1956 31.0673 28.1157L34.5777 24.6053H39.122C39.4973 24.6053 39.8684 24.5796 40.235 24.5341L54.4666 38.7655C55.3547 39.6548 55.3547 41.1012 54.4659 41.9898Z" fill="#F4CB00"/>
</svg>
